<svg width="512" height="512" viewBox="0 0 512 512" fill="none" xmlns="http://www.w3.org/2000/svg">
<g clip-path="url(#clip0_46_4)">
<path d="M60.4906 144.29C56.6883 142.47 54.7871 141.559 53.2458 141.806C51.8995 142.021 50.6996 142.777 49.9239 143.899C49.0358 145.182 49.0358 147.29 49.0358 151.506V191.173C49.0358 192.962 49.0358 193.856 49.3076 194.647C49.5481 195.346 49.9404 195.983 50.4566 196.512C51.0402 197.11 51.8392 197.513 53.4372 198.318L254.852 299.763C256.172 300.427 256.831 300.76 257.523 300.89C258.136 301.006 258.766 301.006 259.379 300.89C260.071 300.76 260.731 300.427 262.05 299.763L463.465 198.318C465.063 197.513 465.862 197.11 466.446 196.512C466.962 195.983 467.354 195.346 467.595 194.647C467.866 193.856 467.866 192.962 467.866 191.173V151.506C467.866 147.29 467.866 145.182 466.978 143.899C466.203 142.777 465.003 142.021 463.656 141.806C462.115 141.559 460.214 142.47 456.412 144.29L261.906 237.418C260.637 238.025 260.003 238.329 259.339 238.449C258.752 238.555 258.15 238.555 257.563 238.449C256.9 238.329 256.265 238.025 254.996 237.418L60.4906 144.29Z" fill="#218D69"/>
<path d="M376.27 309.851C374.583 310.627 373.74 311.015 373.122 311.617C372.576 312.15 372.159 312.801 371.903 313.52C371.613 314.333 371.613 315.262 371.613 317.119V373.007C371.613 375.807 371.613 377.208 372.158 378.277C372.638 379.218 373.403 379.983 374.343 380.462C375.413 381.007 376.813 381.007 379.613 381.007H459.866C462.667 381.007 464.067 381.007 465.136 380.462C466.077 379.983 466.842 379.218 467.321 378.277C467.866 377.208 467.866 375.807 467.866 373.007V280.205C467.866 276.051 467.866 273.975 466.991 272.697C466.227 271.581 465.043 270.823 463.71 270.594C462.184 270.333 460.297 271.201 456.523 272.937L376.27 309.851Z" fill="#218D69"/>
<path d="M60.4165 273.026C56.6333 271.262 54.7417 270.38 53.2105 270.636C51.8727 270.86 50.6834 271.618 49.9151 272.736C49.0358 274.015 49.0358 276.102 49.0358 280.276V373.007C49.0358 375.807 49.0358 377.208 49.5808 378.277C50.0601 379.218 50.825 379.983 51.7658 380.462C52.8354 381.007 54.2355 381.007 57.0358 381.007H135.988C138.788 381.007 140.188 381.007 141.258 380.462C142.199 379.983 142.964 379.218 143.443 378.277C143.988 377.208 143.988 375.807 143.988 373.007V317.09C143.988 315.243 143.988 314.319 143.701 313.509C143.448 312.793 143.034 312.144 142.493 311.612C141.88 311.01 141.043 310.619 139.369 309.839L60.4165 273.026Z" fill="#218D69"/>
</g>
<defs>
<clipPath id="clip0_46_4">
<rect width="512" height="512" rx="94" fill="white"/>
</clipPath>
</defs>
</svg>
