<svg width="256" height="256" viewBox="0 0 256 256" fill="none" xmlns="http://www.w3.org/2000/svg">
<path d="M0 38C0 17.0132 17.0132 0 38 0H218C238.987 0 256 17.0132 256 38V218C256 238.987 238.987 256 218 256H38C17.0132 256 0 238.987 0 218V38Z" fill="#191818"/>
<path d="M55.1946 83.1238C51.3595 81.2023 49.4419 80.2416 47.883 80.471C46.5218 80.6713 45.3033 81.4237 44.5144 82.551C43.611 83.842 43.611 85.9868 43.611 90.2763V97.0258C43.611 98.7802 43.611 99.6574 43.8739 100.436C44.1064 101.124 44.4862 101.754 44.9869 102.281C45.5529 102.876 46.3289 103.285 47.8809 104.103L125.568 145.048C126.933 145.768 127.615 146.127 128.334 146.269C128.971 146.394 129.626 146.394 130.262 146.269C130.981 146.127 131.664 145.768 133.028 145.048L210.716 104.103C212.268 103.285 213.044 102.876 213.61 102.281C214.11 101.754 214.49 101.124 214.723 100.436C214.986 99.6574 214.986 98.7802 214.986 97.0258V90.2763C214.986 85.9868 214.986 83.842 214.082 82.551C213.293 81.4237 212.075 80.6713 210.714 80.471C209.155 80.2416 207.237 81.2023 203.402 83.1238L132.882 118.456C131.568 119.115 130.911 119.444 130.222 119.573C129.612 119.688 128.985 119.688 128.375 119.573C127.686 119.444 127.029 119.115 125.715 118.456L55.1946 83.1238Z" fill="#218D69"/>
<path d="M180.132 149.294C178.489 150.085 177.667 150.48 177.066 151.081C176.535 151.612 176.13 152.256 175.882 152.966C175.601 153.768 175.601 154.679 175.601 156.503V173.025C175.601 175.825 175.601 177.226 176.146 178.295C176.626 179.236 177.391 180.001 178.331 180.48C179.401 181.025 180.801 181.025 183.601 181.025H206.986C209.786 181.025 211.186 181.025 212.256 180.48C213.196 180.001 213.961 179.236 214.441 178.295C214.986 177.226 214.986 175.825 214.986 173.025V145.247C214.986 141.023 214.986 138.911 214.096 137.627C213.319 136.505 212.117 135.749 210.769 135.535C209.225 135.291 207.322 136.207 203.516 138.039L180.132 149.294Z" fill="#218D69"/>
<path d="M55.1191 138.133C51.3032 136.271 49.3952 135.34 47.8466 135.58C46.4941 135.789 45.2865 136.544 44.5054 137.667C43.611 138.954 43.611 141.077 43.611 145.323V173.025C43.611 175.825 43.611 177.226 44.1559 178.295C44.6353 179.236 45.4002 180.001 46.341 180.48C47.4106 181.025 48.8107 181.025 51.611 181.025H74.463C77.2633 181.025 78.6634 181.025 79.733 180.48C80.6738 180.001 81.4387 179.236 81.918 178.295C82.463 177.226 82.463 175.825 82.463 173.025V156.473C82.463 154.66 82.463 153.753 82.185 152.955C81.9391 152.248 81.538 151.606 81.0112 151.076C80.4155 150.476 79.6007 150.078 77.9711 149.283L55.1191 138.133Z" fill="#218D69"/>
</svg>
