<svg width="256" height="256" viewBox="0 0 256 256" fill="none" xmlns="http://www.w3.org/2000/svg">
<path d="M59.4516 87.9769C55.6502 86.1588 53.7494 85.2497 52.2085 85.4968C50.8626 85.7125 49.6631 86.4685 48.8877 87.5896C48 88.8731 48 90.9801 48 95.1939V99.5694C48 101.36 48 102.255 48.2721 103.045C48.5127 103.744 48.9053 104.382 49.4218 104.911C50.0059 105.509 50.8054 105.911 52.4045 106.716L124.905 143.191C126.223 143.854 126.882 144.186 127.573 144.316C128.186 144.432 128.814 144.432 129.427 144.316C130.118 144.186 130.777 143.854 132.095 143.191L204.595 106.716C206.195 105.911 206.994 105.509 207.578 104.911C208.095 104.382 208.487 103.744 208.728 103.045C209 102.255 209 101.36 209 99.5694V95.1939C209 90.9801 209 88.8731 208.112 87.5896C207.337 86.4685 206.137 85.7125 204.791 85.4968C203.251 85.2497 201.35 86.1588 197.548 87.9769L131.952 119.349C130.684 119.956 130.05 120.259 129.387 120.378C128.801 120.484 128.199 120.484 127.613 120.378C126.95 120.259 126.316 119.956 125.048 119.349L59.4516 87.9769Z" fill="#218D69"/>
<path d="M176.66 146.859C174.972 147.635 174.128 148.022 173.51 148.625C172.963 149.158 172.546 149.809 172.29 150.528C172 151.342 172 152.271 172 154.128V167.5C172 170.3 172 171.7 172.545 172.77C173.024 173.711 173.789 174.476 174.73 174.955C175.8 175.5 177.2 175.5 180 175.5H201C203.8 175.5 205.2 175.5 206.27 174.955C207.211 174.476 207.976 173.711 208.455 172.77C209 171.7 209 170.3 209 167.5V144.48C209 140.328 209 138.252 208.125 136.975C207.361 135.859 206.178 135.1 204.845 134.872C203.319 134.61 201.433 135.477 197.66 137.21L176.66 146.859Z" fill="#218D69"/>
<path d="M59.3776 137.299C55.5952 135.537 53.704 134.657 52.1732 134.913C50.8358 135.138 49.6469 135.895 48.879 137.013C48 138.292 48 140.379 48 144.551V167.5C48 170.3 48 171.7 48.545 172.77C49.0243 173.711 49.7892 174.476 50.73 174.955C51.7996 175.5 53.1997 175.5 56 175.5H76.5C79.3003 175.5 80.7004 175.5 81.77 174.955C82.7108 174.476 83.4757 173.711 83.955 172.77C84.5 171.7 84.5 170.3 84.5 167.5V154.099C84.5 152.251 84.5 151.327 84.213 150.517C83.9592 149.801 83.5456 149.152 83.0034 148.62C82.3902 148.017 81.5527 147.627 79.8776 146.847L59.3776 137.299Z" fill="#218D69"/>
</svg>
