<svg width="400" height="220" viewBox="0 0 400 220" fill="none" xmlns="http://www.w3.org/2000/svg">
<g clip-path="url(#clip0_52_13)">
<path d="M384 0H16C7.16344 0 0 7.16344 0 16V204C0 212.837 7.16344 220 16 220H384C392.837 220 400 212.837 400 204V16C400 7.16344 392.837 0 384 0Z" fill="#F5F5F6"/>
<path d="M55 15H25C19.4772 15 15 19.4772 15 25V195C15 200.523 19.4772 205 25 205H55C60.5228 205 65 200.523 65 195V25C65 19.4772 60.5228 15 55 15Z" fill="#E4E4E7"/>
<path d="M40 44C42.2091 44 44 42.2091 44 40C44 37.7909 42.2091 36 40 36C37.7909 36 36 37.7909 36 40C36 42.2091 37.7909 44 40 44Z" fill="#CBD5E1"/>
<path d="M40 64C42.2091 64 44 62.2091 44 60C44 57.7909 42.2091 56 40 56C37.7909 56 36 57.7909 36 60C36 62.2091 37.7909 64 40 64Z" fill="#CBD5E1"/>
<path d="M40 84C42.2091 84 44 82.2091 44 80C44 77.7909 42.2091 76 40 76C37.7909 76 36 77.7909 36 80C36 82.2091 37.7909 84 40 84Z" fill="#CBD5E1"/>
<path d="M374 20H86C82.6863 20 80 22.6863 80 26V29C80 32.3137 82.6863 35 86 35H374C377.314 35 380 32.3137 380 29V26C380 22.6863 377.314 20 374 20Z" fill="#E4E4E7"/>
<path d="M147 24H93C91.3431 24 90 25.3431 90 27V28C90 29.6569 91.3431 31 93 31H147C148.657 31 150 29.6569 150 28V27C150 25.3431 148.657 24 147 24Z" fill="#16A34A"/>
<path d="M340 70H110C104.477 70 100 74.4772 100 80V105C100 110.523 104.477 115 110 115H340C345.523 115 350 110.523 350 105V80C350 74.4772 345.523 70 340 70Z" fill="white"/>
<path d="M290 130H110C104.477 130 100 134.477 100 140V165C100 170.523 104.477 175 110 175H290C295.523 175 300 170.523 300 165V140C300 134.477 295.523 130 290 130Z" fill="white"/>
<rect x="23" y="183" width="35" height="3" rx="1.5" fill="#CBD5E1"/>
<path d="M232 24H178C176.343 24 175 25.3431 175 27V28C175 29.6569 176.343 31 178 31H232C233.657 31 235 29.6569 235 28V27C235 25.3431 233.657 24 232 24Z" fill="#CBD5E1"/>
<rect x="235" y="77" width="103" height="6" rx="3" fill="#2C2C2C"/>
<rect x="108" y="78" width="103" height="6" rx="3" fill="#2C2C2C"/>
<rect x="211" y="100" width="103" height="6" rx="3" fill="#2C2C2C"/>
<rect x="332" y="130" width="25" height="50" rx="12" fill="#E4E4E7"/>
</g>
<defs>
<clipPath id="clip0_52_13">
<rect width="400" height="220" fill="white"/>
</clipPath>
</defs>
</svg>
